<svg width="28" height="28" viewBox="0 0 28 28" fill="none" xmlns="http://www.w3.org/2000/svg">
<path d="M20 12.67H16.0033L17.617 11.055C16.7427 9.985 15.4288 9.335 14.005 9.335C12.7211 9.335 11.5521 9.86 10.7078 10.705C9.86347 11.55 9.33888 12.715 9.33888 14.005C9.33888 16.58 11.4321 18.67 14 18.67C15.2689 18.67 16.443 18.155 17.2923 17.3L18.2315 18.24C17.1324 19.335 15.6236 20 13.995 20C10.6878 20 8 17.31 8 14C8 12.345 8.67445 10.845 9.75854 9.76C10.8426 8.675 12.3414 8 13.995 8C15.7785 8 17.4321 8.79 18.5562 10.105L19.99 8.67V12.67H20Z" fill="white"/>
</svg>
