<svg width="128" height="24" viewBox="0 0 128 24" fill="none" xmlns="http://www.w3.org/2000/svg">
<path d="M29.5707 0.665787L32.0376 23.683H23.8463L23.3403 7.26024L20.1777 23.683H11.8915L8.66564 7.38705L8.19124 23.683H0L2.46686 0.665787H13.2198L15.9713 15.6618L18.3749 0.665787H29.5707Z" fill="#FFC700"/>
<path d="M48.6343 24C43.806 24 40.2533 22.9538 37.9762 20.8613C35.6991 18.7477 34.5605 15.7886 34.5605 11.9841C34.5605 8.22193 35.6885 5.28402 37.9445 3.17041C40.2216 1.0568 43.7849 0 48.6343 0C53.5047 0 57.068 1.0568 59.324 3.17041C61.6011 5.28402 62.7396 8.22193 62.7396 11.9841C62.7396 15.8098 61.6116 18.7688 59.3556 20.8613C57.0996 22.9538 53.5258 24 48.6343 24ZM48.6343 17.5324C50.9746 17.5324 52.6614 17.0885 53.6945 16.2008C54.7276 15.2919 55.2442 13.8864 55.2442 11.9841C55.2442 10.1242 54.7276 8.73976 53.6945 7.83091C52.6614 6.92206 50.9746 6.46764 48.6343 6.46764C46.315 6.46764 44.6388 6.92206 43.6057 7.83091C42.5725 8.73976 42.056 10.1242 42.056 11.9841C42.056 13.8653 42.5725 15.2602 43.6057 16.1691C44.6388 17.0779 46.315 17.5324 48.6343 17.5324Z" fill="#FFC700"/>
<path d="M94.8311 0.665787L97.2979 23.683H89.1067L88.6006 7.26024L85.438 23.683H77.1519L73.926 7.38705L73.4516 23.683H65.2604L67.7272 0.665787H78.4802L81.2317 15.6618L83.6353 0.665787H94.8311Z" fill="#FFC700"/>
<path d="M113.895 24C109.066 24 105.514 22.9538 103.237 20.8613C100.959 18.7477 99.8209 15.7886 99.8209 11.9841C99.8209 8.22193 100.949 5.28402 103.205 3.17041C105.482 1.0568 109.045 0 113.895 0C118.765 0 122.328 1.0568 124.584 3.17041C126.861 5.28402 128 8.22193 128 11.9841C128 15.8098 126.872 18.7688 124.616 20.8613C122.36 22.9538 118.786 24 113.895 24ZM113.895 17.5324C116.235 17.5324 117.922 17.0885 118.955 16.2008C119.988 15.2919 120.505 13.8864 120.505 11.9841C120.505 10.1242 119.988 8.73976 118.955 7.83091C117.922 6.92206 116.235 6.46764 113.895 6.46764C111.575 6.46764 109.899 6.92206 108.866 7.83091C107.833 8.73976 107.316 10.1242 107.316 11.9841C107.316 13.8653 107.833 15.2602 108.866 16.1691C109.899 17.0779 111.575 17.5324 113.895 17.5324Z" fill="#FFC700"/>
</svg>
